<mxfile host="app.diagrams.net" agent="Mozilla/5.0 (Windows NT 10.0; Win64; x64) AppleWebKit/537.36 (KHTML, like Gecko) Chrome/136.0.0.0 Safari/537.36" version="26.2.13">
  <diagram name="Page-1" id="KjTL6bVktkTO7Omr-4kV">
    <mxGraphModel dx="1428" dy="743" grid="1" gridSize="10" guides="1" tooltips="1" connect="1" arrows="1" fold="1" page="1" pageScale="1" pageWidth="850" pageHeight="1100" math="0" shadow="0">
      <root>
        <mxCell id="0" />
        <mxCell id="1" parent="0" />
        <mxCell id="QtI9LUXqEBXJl8w19TW_-1" value="START" style="rounded=0;whiteSpace=wrap;html=1;" vertex="1" parent="1">
          <mxGeometry x="60" y="30" width="90" height="30" as="geometry" />
        </mxCell>
        <mxCell id="QtI9LUXqEBXJl8w19TW_-2" value="S0&lt;div&gt;&lt;div&gt;init&lt;/div&gt;&lt;/div&gt;" style="ellipse;whiteSpace=wrap;html=1;" vertex="1" parent="1">
          <mxGeometry x="160" y="80" width="120" height="80" as="geometry" />
        </mxCell>
        <mxCell id="QtI9LUXqEBXJl8w19TW_-4" value="" style="endArrow=classic;html=1;rounded=0;exitX=0.75;exitY=1;exitDx=0;exitDy=0;entryX=0;entryY=0;entryDx=0;entryDy=0;" edge="1" parent="1" source="QtI9LUXqEBXJl8w19TW_-1" target="QtI9LUXqEBXJl8w19TW_-2">
          <mxGeometry width="50" height="50" relative="1" as="geometry">
            <mxPoint x="400" y="240" as="sourcePoint" />
            <mxPoint x="450" y="190" as="targetPoint" />
          </mxGeometry>
        </mxCell>
        <mxCell id="QtI9LUXqEBXJl8w19TW_-6" value="S1&lt;div&gt;home&lt;/div&gt;" style="ellipse;whiteSpace=wrap;html=1;" vertex="1" parent="1">
          <mxGeometry x="340" y="110" width="120" height="80" as="geometry" />
        </mxCell>
        <mxCell id="QtI9LUXqEBXJl8w19TW_-7" value="S3&lt;div&gt;end&lt;/div&gt;" style="ellipse;whiteSpace=wrap;html=1;" vertex="1" parent="1">
          <mxGeometry x="140" y="190" width="120" height="80" as="geometry" />
        </mxCell>
        <mxCell id="QtI9LUXqEBXJl8w19TW_-8" value="S2&lt;div&gt;play&lt;/div&gt;" style="ellipse;whiteSpace=wrap;html=1;" vertex="1" parent="1">
          <mxGeometry x="305" y="230" width="120" height="80" as="geometry" />
        </mxCell>
        <mxCell id="QtI9LUXqEBXJl8w19TW_-9" value="" style="endArrow=classic;html=1;rounded=0;exitX=1;exitY=0.5;exitDx=0;exitDy=0;flowAnimation=0;curved=1;" edge="1" parent="1" source="QtI9LUXqEBXJl8w19TW_-2" target="QtI9LUXqEBXJl8w19TW_-6">
          <mxGeometry width="50" height="50" relative="1" as="geometry">
            <mxPoint x="480" y="210" as="sourcePoint" />
            <mxPoint x="530" y="160" as="targetPoint" />
            <Array as="points">
              <mxPoint x="310" y="110" />
            </Array>
          </mxGeometry>
        </mxCell>
        <mxCell id="QtI9LUXqEBXJl8w19TW_-12" value="Always" style="text;html=1;align=center;verticalAlign=middle;resizable=0;points=[];autosize=1;strokeColor=none;fillColor=none;" vertex="1" parent="1">
          <mxGeometry x="291" y="91" width="60" height="30" as="geometry" />
        </mxCell>
        <mxCell id="QtI9LUXqEBXJl8w19TW_-14" value="" style="endArrow=classic;html=1;rounded=0;exitX=0.767;exitY=0.075;exitDx=0;exitDy=0;exitPerimeter=0;curved=1;" edge="1" parent="1" source="QtI9LUXqEBXJl8w19TW_-7" target="QtI9LUXqEBXJl8w19TW_-6">
          <mxGeometry width="50" height="50" relative="1" as="geometry">
            <mxPoint x="400" y="240" as="sourcePoint" />
            <mxPoint x="450" y="190" as="targetPoint" />
            <Array as="points">
              <mxPoint x="280" y="170" />
            </Array>
          </mxGeometry>
        </mxCell>
        <mxCell id="QtI9LUXqEBXJl8w19TW_-15" value="Always" style="text;html=1;align=center;verticalAlign=middle;resizable=0;points=[];autosize=1;strokeColor=none;fillColor=none;" vertex="1" parent="1">
          <mxGeometry x="270" y="170" width="60" height="30" as="geometry" />
        </mxCell>
        <mxCell id="QtI9LUXqEBXJl8w19TW_-18" value="" style="endArrow=classic;html=1;rounded=0;exitX=0.408;exitY=0.988;exitDx=0;exitDy=0;exitPerimeter=0;curved=1;" edge="1" parent="1" source="QtI9LUXqEBXJl8w19TW_-6" target="QtI9LUXqEBXJl8w19TW_-8">
          <mxGeometry width="50" height="50" relative="1" as="geometry">
            <mxPoint x="510" y="240" as="sourcePoint" />
            <mxPoint x="560" y="190" as="targetPoint" />
            <Array as="points">
              <mxPoint x="400" y="210" />
            </Array>
          </mxGeometry>
        </mxCell>
        <mxCell id="QtI9LUXqEBXJl8w19TW_-19" value="play_flag == 1" style="text;html=1;align=center;verticalAlign=middle;resizable=0;points=[];autosize=1;strokeColor=none;fillColor=none;" vertex="1" parent="1">
          <mxGeometry x="390" y="200" width="100" height="30" as="geometry" />
        </mxCell>
        <mxCell id="QtI9LUXqEBXJl8w19TW_-20" value="" style="endArrow=classic;html=1;rounded=0;exitX=0;exitY=0.5;exitDx=0;exitDy=0;curved=1;" edge="1" parent="1" source="QtI9LUXqEBXJl8w19TW_-8" target="QtI9LUXqEBXJl8w19TW_-7">
          <mxGeometry width="50" height="50" relative="1" as="geometry">
            <mxPoint x="400" y="240" as="sourcePoint" />
            <mxPoint x="450" y="190" as="targetPoint" />
            <Array as="points">
              <mxPoint x="270" y="280" />
            </Array>
          </mxGeometry>
        </mxCell>
        <mxCell id="QtI9LUXqEBXJl8w19TW_-21" value="score &amp;gt; thresh" style="text;html=1;align=center;verticalAlign=middle;resizable=0;points=[];autosize=1;strokeColor=none;fillColor=none;rotation=7.5;" vertex="1" parent="1">
          <mxGeometry x="215" y="272" width="100" height="30" as="geometry" />
        </mxCell>
        <mxCell id="QtI9LUXqEBXJl8w19TW_-22" value="Game Task" style="text;html=1;align=center;verticalAlign=middle;whiteSpace=wrap;rounded=0;fontSize=20;fontStyle=1" vertex="1" parent="1">
          <mxGeometry x="230" y="20" width="140" height="30" as="geometry" />
        </mxCell>
        <mxCell id="QtI9LUXqEBXJl8w19TW_-23" value="START" style="rounded=0;whiteSpace=wrap;html=1;" vertex="1" parent="1">
          <mxGeometry x="21" y="410" width="90" height="30" as="geometry" />
        </mxCell>
        <mxCell id="QtI9LUXqEBXJl8w19TW_-24" value="S0&lt;div&gt;&lt;div&gt;init&lt;/div&gt;&lt;/div&gt;" style="ellipse;whiteSpace=wrap;html=1;" vertex="1" parent="1">
          <mxGeometry x="100" y="440" width="120" height="80" as="geometry" />
        </mxCell>
        <mxCell id="QtI9LUXqEBXJl8w19TW_-25" value="" style="endArrow=classic;html=1;rounded=0;exitX=0.75;exitY=1;exitDx=0;exitDy=0;entryX=0;entryY=0;entryDx=0;entryDy=0;" edge="1" parent="1" source="QtI9LUXqEBXJl8w19TW_-23" target="QtI9LUXqEBXJl8w19TW_-24">
          <mxGeometry width="50" height="50" relative="1" as="geometry">
            <mxPoint x="410" y="580" as="sourcePoint" />
            <mxPoint x="460" y="530" as="targetPoint" />
          </mxGeometry>
        </mxCell>
        <mxCell id="QtI9LUXqEBXJl8w19TW_-26" value="S1&lt;div&gt;wait&lt;/div&gt;" style="ellipse;whiteSpace=wrap;html=1;" vertex="1" parent="1">
          <mxGeometry x="171" y="580" width="120" height="80" as="geometry" />
        </mxCell>
        <mxCell id="QtI9LUXqEBXJl8w19TW_-37" value="Sound Task" style="text;html=1;align=center;verticalAlign=middle;whiteSpace=wrap;rounded=0;fontSize=20;fontStyle=1" vertex="1" parent="1">
          <mxGeometry x="195" y="390" width="140" height="30" as="geometry" />
        </mxCell>
        <mxCell id="QtI9LUXqEBXJl8w19TW_-38" value="S6&lt;div&gt;end&lt;/div&gt;" style="ellipse;whiteSpace=wrap;html=1;" vertex="1" parent="1">
          <mxGeometry x="410" y="580" width="120" height="80" as="geometry" />
        </mxCell>
        <mxCell id="QtI9LUXqEBXJl8w19TW_-39" value="S2&lt;div&gt;laser&lt;/div&gt;" style="ellipse;whiteSpace=wrap;html=1;" vertex="1" parent="1">
          <mxGeometry x="230" y="490" width="91" height="60" as="geometry" />
        </mxCell>
        <mxCell id="QtI9LUXqEBXJl8w19TW_-40" value="S3&lt;div&gt;hit&lt;/div&gt;" style="ellipse;whiteSpace=wrap;html=1;" vertex="1" parent="1">
          <mxGeometry x="310" y="540" width="91" height="60" as="geometry" />
        </mxCell>
        <mxCell id="QtI9LUXqEBXJl8w19TW_-41" value="S4&lt;div&gt;win&lt;/div&gt;" style="ellipse;whiteSpace=wrap;html=1;" vertex="1" parent="1">
          <mxGeometry x="189" y="690" width="91" height="60" as="geometry" />
        </mxCell>
        <mxCell id="QtI9LUXqEBXJl8w19TW_-42" value="S5&lt;div&gt;start&lt;/div&gt;" style="ellipse;whiteSpace=wrap;html=1;" vertex="1" parent="1">
          <mxGeometry x="310" y="660" width="91" height="60" as="geometry" />
        </mxCell>
        <mxCell id="QtI9LUXqEBXJl8w19TW_-43" style="edgeStyle=orthogonalEdgeStyle;rounded=0;orthogonalLoop=1;jettySize=auto;html=1;exitX=0.5;exitY=1;exitDx=0;exitDy=0;" edge="1" parent="1" source="QtI9LUXqEBXJl8w19TW_-40" target="QtI9LUXqEBXJl8w19TW_-40">
          <mxGeometry relative="1" as="geometry" />
        </mxCell>
        <mxCell id="QtI9LUXqEBXJl8w19TW_-44" value="" style="endArrow=classic;html=1;rounded=0;exitX=0.5;exitY=1;exitDx=0;exitDy=0;curved=1;" edge="1" parent="1" source="QtI9LUXqEBXJl8w19TW_-24" target="QtI9LUXqEBXJl8w19TW_-26">
          <mxGeometry width="50" height="50" relative="1" as="geometry">
            <mxPoint x="400" y="640" as="sourcePoint" />
            <mxPoint x="160" y="600" as="targetPoint" />
            <Array as="points">
              <mxPoint x="160" y="560" />
            </Array>
          </mxGeometry>
        </mxCell>
        <mxCell id="QtI9LUXqEBXJl8w19TW_-45" value="" style="endArrow=classic;html=1;rounded=0;exitX=0.417;exitY=-0.012;exitDx=0;exitDy=0;exitPerimeter=0;curved=1;" edge="1" parent="1" source="QtI9LUXqEBXJl8w19TW_-26" target="QtI9LUXqEBXJl8w19TW_-39">
          <mxGeometry width="50" height="50" relative="1" as="geometry">
            <mxPoint x="400" y="640" as="sourcePoint" />
            <mxPoint x="450" y="590" as="targetPoint" />
            <Array as="points">
              <mxPoint x="220" y="560" />
            </Array>
          </mxGeometry>
        </mxCell>
        <mxCell id="QtI9LUXqEBXJl8w19TW_-46" value="" style="endArrow=classic;html=1;rounded=0;entryX=1;entryY=0.5;entryDx=0;entryDy=0;exitX=0;exitY=0.5;exitDx=0;exitDy=0;" edge="1" parent="1" source="QtI9LUXqEBXJl8w19TW_-38" target="QtI9LUXqEBXJl8w19TW_-26">
          <mxGeometry width="50" height="50" relative="1" as="geometry">
            <mxPoint x="400" y="640" as="sourcePoint" />
            <mxPoint x="450" y="590" as="targetPoint" />
          </mxGeometry>
        </mxCell>
        <mxCell id="QtI9LUXqEBXJl8w19TW_-47" value="" style="endArrow=classic;html=1;rounded=0;exitX=0.637;exitY=0;exitDx=0;exitDy=0;exitPerimeter=0;curved=1;" edge="1" parent="1" source="QtI9LUXqEBXJl8w19TW_-39" target="QtI9LUXqEBXJl8w19TW_-38">
          <mxGeometry width="50" height="50" relative="1" as="geometry">
            <mxPoint x="400" y="640" as="sourcePoint" />
            <mxPoint x="450" y="590" as="targetPoint" />
            <Array as="points">
              <mxPoint x="430" y="470" />
            </Array>
          </mxGeometry>
        </mxCell>
        <mxCell id="QtI9LUXqEBXJl8w19TW_-48" value="" style="endArrow=classic;html=1;rounded=0;exitX=0.945;exitY=0.317;exitDx=0;exitDy=0;exitPerimeter=0;entryX=0.267;entryY=0.05;entryDx=0;entryDy=0;entryPerimeter=0;curved=1;" edge="1" parent="1" source="QtI9LUXqEBXJl8w19TW_-40" target="QtI9LUXqEBXJl8w19TW_-38">
          <mxGeometry width="50" height="50" relative="1" as="geometry">
            <mxPoint x="400" y="640" as="sourcePoint" />
            <mxPoint x="450" y="590" as="targetPoint" />
            <Array as="points">
              <mxPoint x="420" y="560" />
            </Array>
          </mxGeometry>
        </mxCell>
        <mxCell id="QtI9LUXqEBXJl8w19TW_-49" value="" style="endArrow=classic;html=1;rounded=0;curved=1;" edge="1" parent="1" source="QtI9LUXqEBXJl8w19TW_-26" target="QtI9LUXqEBXJl8w19TW_-40">
          <mxGeometry width="50" height="50" relative="1" as="geometry">
            <mxPoint x="400" y="640" as="sourcePoint" />
            <mxPoint x="450" y="590" as="targetPoint" />
            <Array as="points">
              <mxPoint x="280" y="570" />
            </Array>
          </mxGeometry>
        </mxCell>
        <mxCell id="QtI9LUXqEBXJl8w19TW_-50" value="" style="endArrow=classic;html=1;rounded=0;curved=1;" edge="1" parent="1" source="QtI9LUXqEBXJl8w19TW_-26" target="QtI9LUXqEBXJl8w19TW_-41">
          <mxGeometry width="50" height="50" relative="1" as="geometry">
            <mxPoint x="400" y="640" as="sourcePoint" />
            <mxPoint x="450" y="590" as="targetPoint" />
            <Array as="points">
              <mxPoint x="200" y="680" />
            </Array>
          </mxGeometry>
        </mxCell>
        <mxCell id="QtI9LUXqEBXJl8w19TW_-51" value="" style="endArrow=classic;html=1;rounded=0;curved=1;" edge="1" parent="1" source="QtI9LUXqEBXJl8w19TW_-26" target="QtI9LUXqEBXJl8w19TW_-42">
          <mxGeometry width="50" height="50" relative="1" as="geometry">
            <mxPoint x="400" y="640" as="sourcePoint" />
            <mxPoint x="450" y="590" as="targetPoint" />
            <Array as="points">
              <mxPoint x="290" y="670" />
            </Array>
          </mxGeometry>
        </mxCell>
        <mxCell id="QtI9LUXqEBXJl8w19TW_-52" value="" style="endArrow=classic;html=1;rounded=0;curved=1;" edge="1" parent="1" source="QtI9LUXqEBXJl8w19TW_-41" target="QtI9LUXqEBXJl8w19TW_-38">
          <mxGeometry width="50" height="50" relative="1" as="geometry">
            <mxPoint x="400" y="640" as="sourcePoint" />
            <mxPoint x="450" y="590" as="targetPoint" />
            <Array as="points">
              <mxPoint x="430" y="770" />
            </Array>
          </mxGeometry>
        </mxCell>
        <mxCell id="QtI9LUXqEBXJl8w19TW_-53" value="" style="endArrow=classic;html=1;rounded=0;curved=1;" edge="1" parent="1" source="QtI9LUXqEBXJl8w19TW_-42" target="QtI9LUXqEBXJl8w19TW_-38">
          <mxGeometry width="50" height="50" relative="1" as="geometry">
            <mxPoint x="400" y="640" as="sourcePoint" />
            <mxPoint x="450" y="590" as="targetPoint" />
            <Array as="points">
              <mxPoint x="420" y="680" />
            </Array>
          </mxGeometry>
        </mxCell>
        <mxCell id="QtI9LUXqEBXJl8w19TW_-54" value="playing == 0" style="text;html=1;align=center;verticalAlign=middle;resizable=0;points=[];autosize=1;strokeColor=none;fillColor=none;rotation=15;" vertex="1" parent="1">
          <mxGeometry x="351" y="465" width="90" height="30" as="geometry" />
        </mxCell>
        <mxCell id="QtI9LUXqEBXJl8w19TW_-55" value="playing == 0" style="text;html=1;align=center;verticalAlign=middle;resizable=0;points=[];autosize=1;strokeColor=none;fillColor=none;rotation=30;" vertex="1" parent="1">
          <mxGeometry x="370" y="535" width="90" height="30" as="geometry" />
        </mxCell>
        <mxCell id="QtI9LUXqEBXJl8w19TW_-56" value="playing == 0" style="text;html=1;align=center;verticalAlign=middle;resizable=0;points=[];autosize=1;strokeColor=none;fillColor=none;rotation=-15;" vertex="1" parent="1">
          <mxGeometry x="355" y="730" width="90" height="30" as="geometry" />
        </mxCell>
        <mxCell id="QtI9LUXqEBXJl8w19TW_-57" value="playing == 0" style="text;html=1;align=center;verticalAlign=middle;resizable=0;points=[];autosize=1;strokeColor=none;fillColor=none;rotation=-45;" vertex="1" parent="1">
          <mxGeometry x="380" y="675" width="90" height="30" as="geometry" />
        </mxCell>
        <mxCell id="QtI9LUXqEBXJl8w19TW_-58" value="Always" style="text;html=1;align=center;verticalAlign=middle;resizable=0;points=[];autosize=1;strokeColor=none;fillColor=none;" vertex="1" parent="1">
          <mxGeometry x="325" y="598" width="60" height="30" as="geometry" />
        </mxCell>
        <mxCell id="QtI9LUXqEBXJl8w19TW_-59" value="laser == 1" style="text;html=1;align=center;verticalAlign=middle;resizable=0;points=[];autosize=1;strokeColor=none;fillColor=none;rotation=-60;" vertex="1" parent="1">
          <mxGeometry x="175" y="540" width="80" height="30" as="geometry" />
        </mxCell>
        <mxCell id="QtI9LUXqEBXJl8w19TW_-60" value="win == 1" style="text;html=1;align=center;verticalAlign=middle;resizable=0;points=[];autosize=1;strokeColor=none;fillColor=none;" vertex="1" parent="1">
          <mxGeometry x="140" y="660" width="70" height="30" as="geometry" />
        </mxCell>
        <mxCell id="QtI9LUXqEBXJl8w19TW_-61" value="hit == 1" style="text;html=1;align=center;verticalAlign=middle;resizable=0;points=[];autosize=1;strokeColor=none;fillColor=none;rotation=-15;" vertex="1" parent="1">
          <mxGeometry x="240" y="550" width="60" height="30" as="geometry" />
        </mxCell>
        <mxCell id="QtI9LUXqEBXJl8w19TW_-62" value="start == 1" style="text;html=1;align=center;verticalAlign=middle;resizable=0;points=[];autosize=1;strokeColor=none;fillColor=none;" vertex="1" parent="1">
          <mxGeometry x="275" y="640" width="70" height="30" as="geometry" />
        </mxCell>
        <mxCell id="QtI9LUXqEBXJl8w19TW_-63" value="Always" style="text;html=1;align=center;verticalAlign=middle;resizable=0;points=[];autosize=1;strokeColor=none;fillColor=none;" vertex="1" parent="1">
          <mxGeometry x="111" y="540" width="60" height="30" as="geometry" />
        </mxCell>
      </root>
    </mxGraphModel>
  </diagram>
</mxfile>
